<svg width="298" height="62" viewBox="0 0 298 62" fill="none" xmlns="http://www.w3.org/2000/svg">
<path opacity="0.7" d="M57.4949 41.3471C50.4892 38.8831 7.64062 43.3586 4.38217 42.7216C1.54732 41.85 2.10125 24.3671 4.08891 21.7019C4.77318 20.7464 5.75072 20.562 8.16197 20.8973C11.1272 21.4002 50.7499 18.9361 59.2871 18.4668C60.0039 18.9864 61.6331 17.1258 62.0567 17.7795C62.7084 18.5338 82.2591 17.9639 102.462 17.4108C109.891 17.2096 124.782 16.69 146.939 16.3883C150.947 16.338 147.787 17.3772 152.479 17.0085C162.482 16.2039 184.314 17.3605 191.906 16.5559C197.999 15.9189 199.303 15.9022 205.103 16.6565C210.088 17.3102 242.607 17.5449 246.42 16.5056C247.332 16.2039 248.017 16.3547 247.951 16.7403C247.951 16.7403 270.174 18.0477 270.239 18.3662C270.37 18.7517 270.989 18.9696 271.673 18.735C272.846 18.3327 296.763 18.1315 296.958 19.2881C297.545 22.5567 292.038 36.0335 288.878 39.2351C285.554 42.621 271.38 37.8606 258.769 39.4698C196.24 37.1231 201.909 37.7935 190.244 38.816C188.908 37.6259 183.532 40.4084 180.306 38.3132C179.003 37.4583 169.358 37.2069 167.207 38.0282C166.295 38.3802 153.521 37.9612 140.357 37.8606C127.193 37.76 113.605 38.0114 111.162 39.168C100.93 37.1231 61.568 41.0454 57.4949 41.3471Z" fill="#DFE1F3"/>
<path opacity="0.7" d="M28.8514 40.2076C26.1143 39.051 17.4142 41.23 10.5715 42.2693C9.65912 42.4034 4.64111 43.0068 3.8265 42.7386C2.84896 42.2023 0.14445 22.6073 0.0466965 21.8698C-0.148811 20.3276 0.274788 21.3166 1.21974 21.4339C1.74109 21.501 3.85908 21.1825 4.38043 21.1155C6.88944 20.6629 10.3434 19.7074 12.6569 19.0034C13.276 19.456 12.3311 17.696 12.9827 18.2827C14.7097 19.8415 35.5312 12.9188 38.5942 12.0974C39.8324 11.7622 39.7346 12.902 40.9077 12.198C42.1459 11.4437 44.8178 10.857 47.3594 10.2871C56.9066 8.10803 52.3774 7.00173 57.7538 7.33697C60.2303 7.38726 71.0483 4.57121 71.7 3.26377C71.7978 2.895 72.1562 2.96205 72.4169 3.33081C72.4495 3.3811 74.5675 3.09614 76.8484 2.91176C79.1293 2.72738 81.3776 2.57652 81.5079 2.71061C81.8012 3.07938 82.1596 3.21348 82.2574 2.92852C82.29 2.42566 91.3485 0.0286701 92.0002 1.10145C93.8575 4.18568 98.8103 17.6625 99.6901 20.9646C100.635 24.5182 94.1833 20.9143 91.8046 23.546C88.481 23.9986 82.5181 24.9708 74.7304 26.5799L72.091 28.5243C70.6573 27.5689 71.5371 30.5358 68.7022 28.8931C67.5618 28.2394 64.4337 28.7758 64.4988 29.7144C64.5314 30.0832 60.2303 30.7202 55.8965 31.6589C51.5628 32.5808 47.1965 33.7541 47.3594 34.9778C42.9605 34.0223 34.5537 38.129 28.8514 40.2076Z" fill="#DFE1F3"/>
<path opacity="0.7" d="M100.341 57.2043C93.8245 55.0755 59.4805 61.6463 56.222 61.1434C53.6153 60.4059 49.086 43.1241 49.9984 40.4086C50.3242 39.4364 51.0737 39.2018 53.1917 39.4197C55.831 39.7717 85.3852 35.7823 95.4538 34.4748C96.2032 34.9609 97.0504 33.0333 97.6043 33.6535C98.7448 34.7263 156.094 28.541 168.15 27.5353C171.473 27.2503 169.127 28.4572 172.94 27.8035C181.021 26.3955 199.496 26.1273 205.557 24.8198C210.444 23.7638 211.487 23.7135 216.538 24.032C221.654 24.3505 247.884 22.1546 250.621 20.8472C251.273 20.4784 251.859 20.579 251.957 20.9645C251.957 20.9645 270.661 20.5287 270.791 20.7801C270.986 21.1657 271.638 21.3165 272.094 21.0316C272.974 20.579 292.362 18.2826 292.948 19.3889C294.578 22.5569 294.838 36.2851 293.339 39.7046C291.743 43.342 278.057 39.9225 268.249 42.5207C212.009 45.4037 222.859 44.6327 210.738 46.9626C209.271 45.8731 205.622 48.9908 202.298 47.1302C200.962 46.376 192.849 46.7447 191.252 47.7169C190.601 48.1192 179.782 48.5215 168.736 49.2088C157.69 49.9128 146.416 50.9185 144.689 52.2092C136.51 50.8012 107.086 56.0142 100.341 57.2043Z" fill="#DFE1F3"/>
</svg>
